# xmcd
#
# Track frame offsets: 
#        150
#        11074
#        28805
#        39382
#        59922
#        75032
#        91016
#        105349
#        123401
#        140593
#        156238
#        170152
#        188156
#        201732
#        224546
#        240481
#        261971
#        278525
#        295238
#        312976
#
# Disc length: 4357 seconds
#
# Revision: 0
# Processed by: cddbd v1.5.2PL0 Copyright (c) Steve Scherf et al.
# Submitted via: ExactAudioCopy v1.3
#
DISCID=24110314
DTITLE=小林 旭 - 小林 旭の世界 [Disc 5]
DYEAR=2014
DGENRE=歌謡曲・演歌
TTITLE0=北帰行
TTITLE1=惜別の唄
TTITLE2=ズンドコ節
TTITLE3=あきらの八木節
TTITLE4=グングン節
TTITLE5=島原地方の子守唄
TTITLE6=ひとり寝の子守唄
TTITLE7=波浮の港
TTITLE8=蒙古放浪記
TTITLE9=旅人の唄
TTITLE10=馬賊の唄
TTITLE11=ゴンドラの唄
TTITLE12=砂山
TTITLE13=北上夜曲
TTITLE14=城ヶ島の雨
TTITLE15=琵琶湖周航の歌
TTITLE16=知床旅情
TTITLE17=カチューシャの唄
TTITLE18=雪の降る街を
TTITLE19=遠くへ行きたい
EXTD=
EXTT0=
EXTT1=
EXTT2=
EXTT3=
EXTT4=
EXTT5=
EXTT6=
EXTT7=
EXTT8=
EXTT9=
EXTT10=
EXTT11=
EXTT12=
EXTT13=
EXTT14=
EXTT15=
EXTT16=
EXTT17=
EXTT18=
EXTT19=
PLAYORDER=
